<?xml version="1.0" encoding="utf-8"?>
<!-- Generator: Adobe Illustrator 24.1.1, SVG Export Plug-In . SVG Version: 6.00 Build 0)  -->
<svg version="1.1" id="Layer_1" xmlns="http://www.w3.org/2000/svg" xmlns:xlink="http://www.w3.org/1999/xlink" x="0px" y="0px"
	 viewBox="0 0 1200 86" style="enable-background:new 0 0 1200 86;" xml:space="preserve">
<style type="text/css">
	.st0{fill:#1F187F;}
	.st1{fill:none;stroke:#1F187F;stroke-width:5;stroke-miterlimit:10;}
</style>
<rect x="196.29" y="41.17" class="st0" width="56" height="6"/>
<g>
	
		<rect x="387.57" y="41.17" transform="matrix(0.7071 0.7071 -0.7071 0.7071 152.9541 -280.9177)" class="st0" width="56" height="6"/>
	
		<rect x="387.57" y="41.17" transform="matrix(-0.7071 0.7071 -0.7071 -0.7071 740.6655 -218.4474)" class="st0" width="56" height="6"/>
</g>
<g>
	<rect x="5" y="41" transform="matrix(-1.836970e-16 1 -1 -1.836970e-16 77 11)" class="st0" width="56" height="6"/>
	<rect x="5" y="41" transform="matrix(-1 -4.490642e-11 4.490642e-11 -1 66 88)" class="st0" width="56" height="6"/>
</g>
<circle class="st0" cx="606.86" cy="44.17" r="22"/>
<polyline class="st1" points="769.36,58.77 797.74,29.57 826.94,57.95 "/>
<polyline class="st1" points="1018.22,29.57 989.85,58.77 960.65,30.39 "/>
<polyline class="st1" points="1166.38,15.88 1195.07,43.77 1167.18,72.47 "/>
</svg>
